# xmcd
#
# Track frame offsets:
#	150
#	16754
#	31466
#	44871
#	56803
#	71445
#	83330
#	97461
#	111737
#	124009
#	141845
#	154384
#
# Disc length: 2168 seconds
#
# Revision: 1
# Processed by: cddbd v1.5.1PL0 Copyright (c) Steve Scherf et al.
# Submitted via: audiograbber 1.82.02
#
DISCID=b008760c
DTITLE=Patsy Riggir - Greatest Hits CD 1
DYEAR=1900
DGENRE=
TTITLE0=Scarlet Ribbons
TTITLE1=The Wayward Wind
TTITLE2=Back Home Again
TTITLE3=Walking After Midnight
TTITLE4=Crazy
TTITLE5=Please Help Me, I'm Falling
TTITLE6=Storms Never Last
TTITLE7=I Love You Because
TTITLE8=Just One Time
TTITLE9=Have I Told You Lately
TTITLE10=I Fall To Peices
TTITLE11=Still Singing Country
EXTD=
EXTT0=
EXTT1=
EXTT2=
EXTT3=
EXTT4=
EXTT5=
EXTT6=
EXTT7=
EXTT8=
EXTT9=
EXTT10=
EXTT11=
PLAYORDER=
